{
  "accessors": [
    {
      "bufferView": 2,
      "componentType": 5126,
      "count": 1763,
      "max": [
        0.1389613300561905,
        0.47990813851356506,
        0.1389613300561905
      ],
      "min": [
        -0.1389613300561905,
        0.00020232796669006348,
        -0.1389613300561905
      ],
      "type": "VEC3"
    },
    {
      "bufferView": 2,
      "byteOffset": 21156,
      "componentType": 5126,
      "count": 1763,
      "max": [
        1.0,
        1.0,
        1.0
      ],
      "min": [
        -1.0,
        -1.0,
        -1.0
      ],
      "type": "VEC3"
    },
    {
      "bufferView": 3,
      "componentType": 5126,
      "count": 1763,
      "max": [
        1.0,
        1.0,
        1.0,
        1.0
      ],
      "min": [
        -1.0,
        -1.0,
        -1.0,
        1.0
      ],
      "type": "VEC4"
    },
    {
      "bufferView": 1,
      "componentType": 5126,
      "count": 1763,
      "max": [
        0.9993860125541687,
        0.9883107542991638
      ],
      "min": [
        0.0006140900077298284,
        0.0006140768527984619
      ],
      "type": "VEC2"
    },
    {
      "bufferView": 1,
      "byteOffset": 14104,
      "componentType": 5126,
      "count": 1763,
      "max": [
        0.9993860125541687,
        0.9883107542991638
      ],
      "min": [
        0.0006140900077298284,
        0.0006140768527984619
      ],
      "type": "VEC2"
    },
    {
      "bufferView": 1,
      "byteOffset": 28208,
      "componentType": 5126,
      "count": 1763,
      "max": [
        0.9993860125541687,
        0.9883107542991638
      ],
      "min": [
        0.0006140900077298284,
        0.0006140768527984619
      ],
      "type": "VEC2"
    },
    {
      "bufferView": 1,
      "byteOffset": 42312,
      "componentType": 5126,
      "count": 1763,
      "max": [
        0.9993860125541687,
        0.9883107542991638
      ],
      "min": [
        0.0006140900077298284,
        0.0006140768527984619
      ],
      "type": "VEC2"
    },
    {
      "bufferView": 1,
      "byteOffset": 56416,
      "componentType": 5126,
      "count": 1763,
      "max": [
        0.9993860125541687,
        0.9883107542991638
      ],
      "min": [
        0.0006140900077298284,
        0.0006140768527984619
      ],
      "type": "VEC2"
    },
    {
      "bufferView": 0,
      "componentType": 5125,
      "count": 5358,
      "type": "SCALAR"
    }
  ],
  "asset": {
    "extras": {
      "author": "MAR.COS. (https://sketchfab.com/mar.cos.)",
      "license": "CC-BY-4.0 (http://creativecommons.org/licenses/by/4.0/)",
      "source": "https://sketchfab.com/3d-models/old-table-lamp-v03-a5feb56f36514b8fa9766d75735ff785",
      "title": "Old Table Lamp V03"
    },
    "generator": "Sketchfab-11.67.0",
    "version": "2.0"
  },
  "bufferViews": [
    {
      "buffer": 0,
      "byteLength": 21432,
      "name": "floatBufferViews",
      "target": 34963
    },
    {
      "buffer": 0,
      "byteLength": 70520,
      "byteOffset": 21432,
      "byteStride": 8,
      "name": "floatBufferViews",
      "target": 34962
    },
    {
      "buffer": 0,
      "byteLength": 42312,
      "byteOffset": 91952,
      "byteStride": 12,
      "name": "floatBufferViews",
      "target": 34962
    },
    {
      "buffer": 0,
      "byteLength": 28208,
      "byteOffset": 134264,
      "byteStride": 16,
      "name": "floatBufferViews",
      "target": 34962
    }
  ],
  "buffers": [
    {
      "byteLength": 162472,
      "uri": "scene.bin"
    }
  ],
  "images": [
    {
      "uri": "textures/M_OldTableLamp_V03_baseColor.png"
    },
    {
      "uri": "textures/M_OldTableLamp_V03_metallicRoughness.png"
    },
    {
      "uri": "textures/M_OldTableLamp_V03_emissive.png"
    },
    {
      "uri": "textures/M_OldTableLamp_V03_normal.png"
    }
  ],
  "materials": [
    {
      "doubleSided": true,
      "emissiveFactor": [
        1.0,
        1.0,
        1.0
      ],
      "emissiveTexture": {
        "index": 2
      },
      "name": "M_OldTableLamp_V03",
      "normalTexture": {
        "index": 3
      },
      "pbrMetallicRoughness": {
        "baseColorTexture": {
          "index": 0
        },
        "metallicRoughnessTexture": {
          "index": 1
        }
      }
    }
  ],
  "meshes": [
    {
      "name": "Object_0",
      "primitives": [
        {
          "attributes": {
            "NORMAL": 1,
            "POSITION": 0,
            "TANGENT": 2,
            "TEXCOORD_0": 3,
            "TEXCOORD_1": 4,
            "TEXCOORD_2": 5,
            "TEXCOORD_3": 6,
            "TEXCOORD_4": 7
          },
          "indices": 8,
          "material": 0,
          "mode": 4
        }
      ]
    }
  ],
  "nodes": [
    {
      "children": [
        1
      ],
      "matrix": [
        1.0,
        0.0,
        0.0,
        0.0,
        0.0,
        2.220446049250313e-16,
        -1.0,
        0.0,
        0.0,
        1.0,
        2.220446049250313e-16,
        0.0,
        0.0,
        0.0,
        0.0,
        1.0
      ],
      "name": "Sketchfab_model"
    },
    {
      "children": [
        2
      ],
      "name": "root"
    },
    {
      "children": [
        3
      ],
      "matrix": [
        1.0,
        0.0,
        0.0,
        0.0,
        0.0,
        2.220446049250313e-16,
        1.0,
        0.0,
        0.0,
        -1.0,
        2.220446049250313e-16,
        0.0,
        0.0,
        0.0,
        0.0,
        1.0
      ],
      "name": "GLTF_SceneRootNode"
    },
    {
      "children": [
        4
      ],
      "name": "SM_OldTableLamp_V03_0"
    },
    {
      "mesh": 0,
      "name": "Object_4"
    }
  ],
  "samplers": [
    {
      "magFilter": 9729,
      "minFilter": 9987,
      "wrapS": 10497,
      "wrapT": 10497
    }
  ],
  "scene": 0,
  "scenes": [
    {
      "name": "Sketchfab_Scene",
      "nodes": [
        0
      ]
    }
  ],
  "textures": [
    {
      "sampler": 0,
      "source": 0
    },
    {
      "sampler": 0,
      "source": 1
    },
    {
      "sampler": 0,
      "source": 2
    },
    {
      "sampler": 0,
      "source": 3
    }
  ]
}
